<?xml version="1.0" standalone="no"?>
<!DOCTYPE svg PUBLIC "-//W3C//DTD SVG 20010904//EN"
 "http://www.w3.org/TR/2001/REC-SVG-20010904/DTD/svg10.dtd">
<svg version="1.0" xmlns="http://www.w3.org/2000/svg"
 width="601.000000pt" height="765.000000pt" viewBox="0 0 601.000000 765.000000"
 preserveAspectRatio="xMidYMid meet">

<g transform="translate(0.000000,765.000000) scale(0.100000,-0.100000)"
fill="#000000" stroke="none">
<path d="M2830 7643 c-825 -46 -1597 -418 -2124 -1023 -387 -444 -611 -946
-688 -1540 -18 -141 -15 -499 6 -650 68 -499 254 -949 553 -1342 l44 -58 124
0 123 0 25 73 c36 105 230 657 402 1147 53 151 116 331 140 400 24 69 87 249
140 400 53 151 126 358 162 460 35 102 94 268 130 370 36 102 72 205 80 230
14 42 27 54 156 145 180 128 172 124 153 86 -24 -46 -18 -51 7 -5 30 55 49 79
68 86 18 7 672 470 705 500 25 22 28 22 48 2 13 -13 16 -46 16 -204 0 -162 2
-189 16 -194 14 -5 15 12 12 163 -1 93 -1 166 2 163 3 -4 22 -20 42 -35 21
-15 52 -40 69 -56 l32 -29 -8 -774 c-4 -437 -11 -777 -16 -782 -13 -14 -11
-90 3 -104 6 -6 13 -55 15 -115 2 -84 0 -107 -12 -117 -22 -18 -18 -30 14 -41
28 -10 28 -10 27 -92 -1 -73 -4 -86 -28 -118 -16 -20 -28 -39 -28 -42 0 -9
-60 -96 -71 -102 -5 -4 -9 52 -9 143 0 232 -10 362 -28 362 -12 0 -13 -9 -8
-46 3 -26 6 -188 6 -360 0 -289 1 -313 18 -318 9 -3 384 -58 832 -121 448 -64
817 -119 819 -121 19 -19 -94 -6 -692 79 -375 54 -687 97 -694 97 -8 0 -13
-23 -16 -62 l-3 -63 -2 66 -2 65 -87 12 c-49 7 -105 15 -125 18 l-38 7 0 -351
c0 -193 4 -362 9 -375 9 -23 14 -24 143 -31 73 -3 162 -9 198 -12 84 -6 1107
-71 1358 -86 137 -8 192 -15 192 -23 0 -9 -14 -11 -42 -9 -24 2 -151 11 -283
19 -845 53 -1061 66 -1150 73 -55 5 -108 7 -117 4 -13 -3 -18 -18 -21 -66 l-3
-61 -2 68 -2 67 -37 0 c-21 0 -82 3 -135 7 l-98 6 0 -201 0 -202 1023 0 c562
0 1016 4 1009 8 -12 8 -110 293 -126 367 -2 6 -8 21 -14 35 -8 20 -63 187 -68
210 0 3 -4 12 -7 20 -5 11 -64 193 -72 220 -1 3 -4 12 -8 20 -3 8 -47 141 -97
295 -50 154 -104 318 -120 365 -16 47 -90 274 -165 505 -75 231 -178 548 -230
705 l-93 285 -94 80 c-139 118 -323 274 -487 414 -80 67 -182 154 -226 191
-44 37 -131 111 -193 163 l-113 96 -122 -86 c-67 -48 -194 -139 -282 -202 -88
-63 -199 -142 -247 -175 -76 -53 -88 -65 -89 -91 -1 -27 -2 -28 -8 -7 -6 22
-16 16 -191 -108 -102 -72 -191 -135 -198 -139 -7 -4 -48 -108 -92 -232 -43
-123 -108 -309 -145 -414 -37 -104 -98 -278 -135 -385 -38 -107 -91 -258 -119
-335 -27 -77 -93 -264 -146 -415 -53 -151 -105 -300 -117 -330 -11 -30 -51
-143 -88 -250 -87 -249 -224 -634 -258 -727 -17 -48 -32 -73 -42 -73 -19 0
-87 80 -176 205 -490 689 -623 1564 -358 2362 292 883 1069 1597 1984 1822
168 42 205 49 310 65 649 100 1337 -22 1895 -336 739 -416 1246 -1108 1390
-1895 45 -251 55 -618 22 -831 -25 -161 -88 -424 -107 -447 -5 -5 -9 -14 -9
-20 -2 -18 -42 -136 -61 -179 -10 -22 -24 -55 -31 -73 -9 -22 -16 -28 -22 -20
-4 7 -5 1 -2 -13 4 -17 0 -32 -14 -47 -11 -11 -17 -24 -13 -27 3 -4 2 -10 -3
-14 -6 -4 -25 -36 -43 -72 -37 -74 -35 -70 -119 -201 -34 -52 -69 -102 -78
-109 -8 -7 -15 -17 -15 -22 0 -17 -108 -142 -130 -151 -8 -3 28 -6 80 -6 87 0
96 2 111 22 171 236 230 331 315 506 181 374 267 719 280 1136 33 958 -433
1850 -1266 2426 -531 367 -1231 560 -1900 522z m508 -958 c23 -20 93 -77 155
-128 63 -51 182 -148 263 -217 82 -69 169 -141 194 -160 42 -32 149 -121 177
-147 18 -16 16 -28 -12 -73 -14 -22 -25 -42 -25 -45 0 -3 24 -21 54 -40 30
-19 58 -40 61 -46 16 -26 -9 -19 -69 19 l-65 41 -35 -57 c-47 -77 -143 -228
-174 -275 -14 -20 -23 -39 -21 -41 4 -2 330 -124 477 -176 34 -13 62 -27 62
-31 0 -18 17 -23 -413 133 -77 28 -142 46 -147 42 -5 -5 -34 -52 -66 -104 -31
-52 -74 -121 -96 -153 -21 -32 -38 -60 -38 -62 0 -2 -34 -58 -76 -125 -42 -67
-75 -123 -72 -125 2 -2 251 -49 552 -104 302 -56 551 -103 554 -106 3 -3 2 -8
-1 -11 -5 -5 -995 168 -1104 193 -18 4 -22 0 -26 -24 -5 -33 -10 41 -11 167
-1 80 -2 85 -23 88 -15 2 -23 11 -25 30 -2 15 -10 28 -19 30 -23 4 -51 -26
-44 -48 4 -13 -1 -19 -20 -22 -14 -3 -28 -2 -31 3 -7 12 8 1609 16 1609 3 0
25 -16 48 -35z m-17 -1635 c5 0 9 -11 9 -25 0 -23 -2 -25 -22 -14 -13 7 -26
17 -30 23 -10 15 2 28 19 22 8 -3 19 -6 24 -6z m-5 -77 c-8 -8 -36 5 -36 17 0
7 6 7 21 0 11 -7 18 -14 15 -17z m76 -103 c5 -30 4 -58 -5 -85 -11 -31 -12
-76 -6 -195 8 -171 11 -366 5 -359 -2 2 -7 101 -11 220 -4 119 -10 232 -15
250 l-7 34 -11 -25 -10 -25 -11 28 c-6 16 -11 63 -11 106 0 71 2 79 23 89 38
18 51 10 59 -38z m71 -110 c7 -63 -4 -94 -25 -71 -10 11 -10 14 0 18 7 3 12
25 12 61 0 68 5 65 13 -8z m-56 -977 c-2 -16 -4 -3 -4 27 0 30 2 43 4 28 2
-16 2 -40 0 -55z m10 -205 c-2 -35 -3 -9 -3 57 0 66 1 94 3 63 2 -32 2 -86 0
-120z m10 -115 c-3 -10 -5 -2 -5 17 0 19 2 27 5 18 2 -10 2 -26 0 -35z m10
-345 c-2 -29 -3 -8 -3 47 0 55 1 79 3 53 2 -26 2 -71 0 -100z"/>
<path d="M3103 6338 c4 -83 7 -243 7 -355 0 -181 2 -203 16 -203 15 0 16 30
10 347 -4 190 -9 350 -12 355 -3 4 -10 8 -16 8 -8 0 -9 -44 -5 -152z"/>
<path d="M2197 6214 c-37 -74 -33 -83 4 -10 17 32 29 60 27 62 -2 2 -16 -21
-31 -52z"/>
<path d="M2146 6108 c-13 -32 -42 -94 -121 -263 -49 -106 -57 -128 -45 -120 6
3 10 10 10 15 0 4 19 48 41 97 125 266 141 303 134 303 -2 0 -11 -15 -19 -32z"/>
<path d="M3114 5658 c3 -50 6 -225 6 -390 0 -260 2 -298 15 -298 14 0 15 44 9
378 -3 207 -7 383 -10 390 -2 6 -9 12 -15 12 -9 0 -10 -24 -5 -92z"/>
<path d="M1937 5658 c-125 -275 -172 -371 -181 -374 -7 -3 -10 -38 -8 -98 l4
-93 -35 -38 c-72 -78 -76 -121 -6 -66 l41 33 -5 -103 c-2 -57 -3 -93 -1 -79
14 89 34 121 97 155 23 13 27 22 27 59 0 29 7 53 22 72 12 16 23 31 25 33 2 2
14 -1 27 -8 32 -18 55 -11 79 21 27 36 14 48 -18 18 -24 -22 -26 -23 -44 -5
-18 15 -18 19 -5 32 8 9 14 23 12 32 -4 22 -37 26 -51 7 -11 -15 -18 -15 -75
5 -34 11 -62 24 -62 28 0 4 39 90 86 192 92 197 106 229 99 229 -2 0 -14 -24
-28 -52z m-123 -418 c17 -6 24 -14 20 -25 -3 -8 -11 -15 -18 -15 -12 1 -56 35
-56 44 0 9 26 7 54 -4z m-4 -66 c0 -19 -16 -18 -24 2 -11 27 -7 37 9 24 8 -7
15 -19 15 -26z m-32 -2 c7 -21 6 -33 -4 -47 -13 -17 -14 -14 -14 28 0 54 4 58
18 19z m42 -122 c0 -26 -29 -60 -52 -60 -17 0 -7 55 13 77 26 27 39 22 39 -17z"/>
<path d="M1732 4780 c0 -19 2 -27 5 -17 2 9 2 25 0 35 -3 9 -5 1 -5 -18z"/>
<path d="M1722 4710 c0 -19 2 -27 5 -17 2 9 2 25 0 35 -3 9 -5 1 -5 -18z"/>
<path d="M1706 4619 c-4 -28 -5 -53 -3 -56 3 -2 8 19 12 47 4 28 5 53 2 56 -2
3 -7 -19 -11 -47z"/>
<path d="M1692 4525 c0 -16 2 -22 5 -12 2 9 2 23 0 30 -3 6 -5 -1 -5 -18z"/>
<path d="M1682 4465 c0 -16 2 -22 5 -12 2 9 2 23 0 30 -3 6 -5 -1 -5 -18z"/>
<path d="M1672 4405 c0 -16 2 -22 5 -12 2 9 2 23 0 30 -3 6 -5 -1 -5 -18z"/>
<path d="M1641 4239 c-13 -71 -21 -132 -19 -135 3 -2 15 55 27 127 13 71 21
132 19 135 -3 2 -15 -55 -27 -127z"/>
<path d="M1566 3834 c-27 -143 -61 -319 -75 -391 -15 -73 -24 -133 -20 -133
10 0 153 753 147 771 -2 6 -26 -105 -52 -247z"/>
<path d="M1441 3184 c-13 -66 -25 -128 -28 -139 -4 -13 -2 -17 5 -10 11 11 55
240 50 256 -2 6 -14 -42 -27 -107z"/>
<path d="M3541 3004 c0 -11 3 -14 6 -6 3 7 2 16 -1 19 -3 4 -6 -2 -5 -13z"/>
<path d="M4023 2932 c-174 -388 -454 -1015 -484 -1082 -21 -47 -39 -91 -39
-97 0 -10 35 -13 143 -13 l144 0 41 90 41 90 186 0 187 0 41 -90 42 -90 142 0
c118 0 143 3 143 14 0 8 -16 50 -36 93 -20 43 -53 116 -74 163 -125 283 -162
365 -203 455 -155 343 -227 506 -227 514 0 5 -4 12 -9 15 -4 3 -22 -25 -38
-62z m34 -127 c-13 -19 -27 -32 -30 -28 -4 3 -7 -1 -7 -10 0 -9 -4 -17 -10
-17 -14 0 -13 11 9 61 10 24 22 53 25 64 7 19 9 18 22 -8 14 -25 13 -30 -9
-62z m69 -632 c-2 -2 -35 -3 -74 -1 l-71 3 37 83 37 82 37 -82 c21 -44 36 -83
34 -85z"/>
<path d="M3551 2968 c-1 -17 -27 -18 -396 -18 l-395 0 0 -135 0 -135 145 0
145 0 0 -470 0 -470 135 0 135 0 0 470 0 470 145 0 145 0 0 135 0 135 -24 0
c-15 0 -26 7 -29 18 -4 16 -5 16 -6 0z"/>
<path d="M728 2820 l3 -139 147 -3 147 -3 3 -467 2 -468 140 0 140 0 2 468 3
467 148 3 147 3 0 139 0 140 -442 0 -443 0 3 -140z"/>
<path d="M2053 2940 c-86 -22 -128 -43 -210 -104 -163 -120 -250 -308 -240
-521 7 -159 62 -286 169 -394 118 -119 232 -170 401 -178 180 -9 299 28 428
132 294 238 300 678 12 934 -148 132 -365 182 -560 131z m298 -288 c70 -34
122 -84 159 -154 31 -57 34 -71 35 -148 0 -73 -4 -93 -27 -141 -34 -68 -96
-132 -163 -167 -43 -23 -62 -26 -140 -26 -107 0 -158 19 -230 85 -189 174
-123 486 120 566 62 20 191 12 246 -15z"/>
<path d="M4670 2345 l0 -605 373 2 372 3 3 133 3 132 -236 0 -235 0 0 470 0
470 -140 0 -140 0 0 -605z"/>
<path d="M1475 1680 c-3 -5 -1 -10 4 -10 6 0 11 5 11 10 0 6 -2 10 -4 10 -3 0
-8 -4 -11 -10z"/>
<path d="M3893 1683 c9 -2 25 -2 35 0 9 3 1 5 -18 5 -19 0 -27 -2 -17 -5z"/>
<path d="M5018 1683 c7 -3 16 -2 19 1 4 3 -2 6 -13 5 -11 0 -14 -3 -6 -6z"/>
<path d="M1568 1673 c6 -2 18 -2 25 0 6 3 1 5 -13 5 -14 0 -19 -2 -12 -5z"/>
<path d="M2008 1673 c7 -3 16 -2 19 1 4 3 -2 6 -13 5 -11 0 -14 -3 -6 -6z"/>
<path d="M1325 1659 c-4 -6 -5 -12 -2 -15 2 -3 7 2 10 11 7 17 1 20 -8 4z"/>
<path d="M3718 1623 c7 -3 16 -2 19 1 4 3 -2 6 -13 5 -11 0 -14 -3 -6 -6z"/>
<path d="M4156 1597 c3 -10 9 -15 12 -12 3 3 0 11 -7 18 -10 9 -11 8 -5 -6z"/>
<path d="M1441 1584 c0 -11 3 -14 6 -6 3 7 2 16 -1 19 -3 4 -6 -2 -5 -13z"/>
<path d="M4527 1577 c-3 -8 1 -14 8 -14 7 0 11 6 8 14 -3 7 -6 13 -8 13 -2 0
-5 -6 -8 -13z"/>
<path d="M1425 1549 c-4 -6 -5 -12 -2 -15 2 -3 7 2 10 11 7 17 1 20 -8 4z"/>
<path d="M3071 1544 c0 -11 3 -14 6 -6 3 7 2 16 -1 19 -3 4 -6 -2 -5 -13z"/>
<path d="M4156 1543 c-6 -14 -5 -15 5 -6 7 7 10 15 7 18 -3 3 -9 -2 -12 -12z"/>
<path d="M1371 1534 c0 -11 3 -14 6 -6 3 7 2 16 -1 19 -3 4 -6 -2 -5 -13z"/>
<path d="M3830 1530 c-18 -12 -2 -12 25 0 13 6 15 9 5 9 -8 0 -22 -4 -30 -9z"/>
<path d="M3960 1536 c0 -2 9 -6 20 -9 11 -3 18 -1 14 4 -5 9 -34 13 -34 5z"/>
<path d="M1257 1501 c-4 -17 -3 -21 5 -13 5 5 8 16 6 23 -3 8 -7 3 -11 -10z"/>
<path d="M2435 1510 c3 -5 8 -10 11 -10 2 0 4 5 4 10 0 6 -5 10 -11 10 -5 0
-7 -4 -4 -10z"/>
<path d="M3790 1510 c-9 -6 -10 -10 -3 -10 6 0 15 5 18 10 8 12 4 12 -15 0z"/>
<path d="M1383 1466 c0 -17 1 -24 4 -16 3 8 10 20 15 26 5 7 4 14 -4 17 -9 3
-14 -6 -15 -27z"/>
<path d="M4076 1478 c3 -5 10 -6 15 -3 13 9 11 12 -6 12 -8 0 -12 -4 -9 -9z"/>
<path d="M926 1408 c3 -5 10 -6 15 -3 13 9 11 12 -6 12 -8 0 -12 -4 -9 -9z"/>
<path d="M1688 1393 c6 -2 18 -2 25 0 6 3 1 5 -13 5 -14 0 -19 -2 -12 -5z"/>
<path d="M941 1374 c0 -11 3 -14 6 -6 3 7 2 16 -1 19 -3 4 -6 -2 -5 -13z"/>
<path d="M2461 1374 c0 -11 3 -14 6 -6 3 7 2 16 -1 19 -3 4 -6 -2 -5 -13z"/>
<path d="M2611 1374 c0 -11 3 -14 6 -6 3 7 2 16 -1 19 -3 4 -6 -2 -5 -13z"/>
<path d="M1928 1363 c7 -3 16 -2 19 1 4 3 -2 6 -13 5 -11 0 -14 -3 -6 -6z"/>
<path d="M1691 1344 c0 -11 3 -14 6 -6 3 7 2 16 -1 19 -3 4 -6 -2 -5 -13z"/>
<path d="M1326 1335 c-9 -26 -7 -32 5 -12 6 10 9 21 6 23 -2 3 -7 -2 -11 -11z"/>
<path d="M2592 1314 c-1 -13 0 -24 2 -24 7 0 14 40 7 44 -4 3 -8 -6 -9 -20z"/>
<path d="M4586 1317 c3 -10 9 -15 12 -12 3 3 0 11 -7 18 -10 9 -11 8 -5 -6z"/>
<path d="M2328 1303 c7 -3 16 -2 19 1 4 3 -2 6 -13 5 -11 0 -14 -3 -6 -6z"/>
<path d="M980 1285 c0 -5 5 -17 10 -25 5 -8 10 -10 10 -5 0 6 -5 17 -10 25 -5
8 -10 11 -10 5z"/>
<path d="M3542 1270 c0 -14 2 -19 5 -12 2 6 2 18 0 25 -3 6 -5 1 -5 -13z"/>
<path d="M2531 1227 c-13 -21 -12 -21 5 -5 10 10 16 20 13 22 -3 3 -11 -5 -18
-17z"/>
<path d="M4520 1235 c0 -8 2 -15 4 -15 2 0 6 7 10 15 3 8 1 15 -4 15 -6 0 -10
-7 -10 -15z"/>
<path d="M4771 1230 c0 -8 4 -22 9 -30 12 -18 12 -2 0 25 -6 13 -9 15 -9 5z"/>
<path d="M1701 1184 c0 -11 3 -14 6 -6 3 7 2 16 -1 19 -3 4 -6 -2 -5 -13z"/>
<path d="M2490 1162 c0 -7 10 -23 21 -35 19 -19 20 -20 11 -2 -22 39 -32 51
-32 37z"/>
<path d="M3570 1130 c6 -11 13 -20 16 -20 2 0 0 9 -6 20 -6 11 -13 20 -16 20
-2 0 0 -9 6 -20z"/>
<path d="M3725 1140 c3 -5 8 -10 11 -10 2 0 4 5 4 10 0 6 -5 10 -11 10 -5 0
-7 -4 -4 -10z"/>
<path d="M1057 1110 c3 -11 9 -22 13 -25 5 -3 6 4 3 15 -3 11 -9 22 -13 25 -5
3 -6 -4 -3 -15z"/>
<path d="M4090 1111 c0 -5 7 -12 16 -15 14 -5 15 -4 4 9 -14 17 -20 19 -20 6z"/>
<path d="M2360 1096 c0 -2 7 -9 15 -16 9 -7 15 -8 15 -2 0 5 -7 12 -15 16 -8
3 -15 4 -15 2z"/>
<path d="M4840 1071 c0 -6 4 -13 10 -16 6 -3 7 1 4 9 -7 18 -14 21 -14 7z"/>
<path d="M1081 1054 c0 -11 3 -14 6 -6 3 7 2 16 -1 19 -3 4 -6 -2 -5 -13z"/>
<path d="M1738 1053 c7 -3 16 -2 19 1 4 3 -2 6 -13 5 -11 0 -14 -3 -6 -6z"/>
<path d="M2008 1053 c7 -3 16 -2 19 1 4 3 -2 6 -13 5 -11 0 -14 -3 -6 -6z"/>
<path d="M3948 1053 c7 -3 16 -2 19 1 4 3 -2 6 -13 5 -11 0 -14 -3 -6 -6z"/>
<path d="M1738 1033 c7 -3 16 -2 19 1 4 3 -2 6 -13 5 -11 0 -14 -3 -6 -6z"/>
<path d="M4425 1030 c-3 -6 1 -7 9 -4 18 7 21 14 7 14 -6 0 -13 -4 -16 -10z"/>
<path d="M4301 974 c0 -11 3 -14 6 -6 3 7 2 16 -1 19 -3 4 -6 -2 -5 -13z"/>
<path d="M4895 960 c4 -14 7 -31 7 -37 1 -7 5 -13 10 -13 11 0 10 2 -8 41 -10
23 -13 26 -9 9z"/>
<path d="M2925 920 c-3 -5 -1 -10 4 -10 6 0 11 5 11 10 0 6 -2 10 -4 10 -3 0
-8 -4 -11 -10z"/>
<path d="M1683 722 c-21 -3 -23 -9 -23 -70 l0 -66 -68 67 c-37 37 -71 67 -75
67 -4 0 -7 -53 -7 -119 0 -109 2 -119 19 -124 28 -7 31 -1 31 70 l0 65 73 -67
72 -66 3 66 c2 36 2 92 0 123 -3 53 -5 57 -25 54z"/>
<path d="M1740 704 c0 -16 8 -23 30 -27 l30 -6 0 -96 c0 -95 0 -95 25 -95 l25
0 0 101 0 100 28 -3 c22 -2 28 1 30 20 2 13 -2 22 -10 23 -7 0 -46 1 -85 2
-68 2 -73 1 -73 -19z"/>
<path d="M1963 722 l-33 -3 0 -118 0 -119 28 -4 c15 -2 48 -2 75 0 38 3 47 8
47 23 0 14 -8 19 -27 20 -16 1 -32 2 -38 4 -5 1 -16 3 -22 3 -7 1 -13 11 -13
22 0 15 9 21 41 26 33 6 40 10 37 27 -2 17 -10 21 -38 22 -31 0 -35 3 -35 25
0 23 4 25 45 25 38 0 45 3 48 22 3 18 -3 21 -40 24 -24 2 -58 3 -75 1z"/>
<path d="M2362 723 c-22 -4 -23 -6 -20 -125 3 -118 4 -121 26 -123 22 -2 22 0
22 127 0 70 -1 127 -2 127 -2 -1 -13 -4 -26 -6z"/>
<path d="M2713 723 c-10 -3 -13 -37 -13 -123 0 -108 2 -118 19 -123 11 -3 22
-2 25 1 3 3 6 58 6 123 0 117 -5 133 -37 122z"/>
<path d="M2838 722 c-27 -2 -48 -6 -48 -10 -4 -103 -2 -220 3 -228 3 -6 25 -9
49 -8 104 4 100 3 96 25 -2 18 -11 22 -51 24 -55 2 -65 9 -51 33 11 16 16 18
57 21 13 1 17 7 15 24 -2 13 -9 21 -18 19 -28 -6 -60 8 -60 28 0 20 30 34 66
30 35 -4 41 0 37 23 -5 23 -11 25 -95 19z"/>
<path d="M3258 722 c-70 -3 -78 -5 -78 -22 0 -15 7 -20 29 -20 36 0 38 -6 40
-109 1 -46 4 -87 6 -91 3 -5 14 -6 25 -3 18 5 20 14 20 103 0 86 2 97 18 97
36 0 42 3 42 22 0 24 -10 27 -102 23z"/>
<path d="M3446 719 c-118 -34 -118 -205 1 -238 101 -28 193 78 146 168 -31 59
-89 87 -147 70z m93 -75 c27 -34 26 -57 -2 -90 -46 -53 -127 -25 -129 44 -1
45 26 72 73 72 29 0 42 -6 58 -26z"/>
<path d="M3735 720 c-2 -3 12 -35 31 -70 26 -49 34 -76 34 -115 0 -59 3 -65
31 -58 16 4 19 14 19 55 0 38 8 64 35 112 41 74 43 83 13 81 -15 -1 -30 -14
-43 -38 -11 -20 -23 -37 -27 -37 -4 0 -16 17 -27 38 -13 26 -26 38 -41 38 -12
0 -23 -3 -25 -6z"/>
<path d="M4594 721 c-2 -2 -4 -58 -4 -123 l0 -118 25 0 c22 0 25 4 25 35 0 33
2 35 34 35 77 0 119 89 67 144 -18 19 -35 25 -83 28 -33 1 -62 1 -64 -1z m114
-66 c22 -21 -2 -55 -38 -55 -27 0 -30 3 -30 33 0 19 3 37 7 40 8 9 44 -1 61
-18z"/>
<path d="M4796 722 c-3 -3 -6 -58 -6 -122 0 -64 3 -119 6 -122 3 -3 14 -4 25
-1 17 5 19 15 19 123 0 108 -2 118 -19 123 -11 3 -22 2 -25 -1z"/>
<path d="M4938 722 l-68 -3 0 -119 0 -120 33 -1 c17 -1 46 -2 62 -3 44 -2 55
3 55 28 0 17 -6 22 -27 22 -65 1 -73 4 -73 24 0 11 5 21 10 21 6 1 15 3 20 4
6 1 19 3 30 4 29 2 27 41 -2 42 -50 3 -53 4 -53 29 0 23 4 25 45 25 35 0 46 4
48 19 6 27 -6 31 -80 28z"/>
<path d="M990 601 c0 -90 3 -120 13 -124 24 -9 36 7 39 53 l3 45 35 -48 34
-48 18 25 c10 13 27 35 38 48 l19 23 1 -46 c0 -30 5 -49 13 -52 32 -12 38 8
35 129 l-3 119 -58 -77 c-32 -43 -60 -78 -62 -78 -3 0 -30 34 -60 75 -31 41
-58 75 -60 75 -3 0 -5 -54 -5 -119z"/>
<path d="M1354 684 c-9 -21 -31 -74 -50 -117 -20 -42 -32 -82 -29 -87 10 -17
34 -11 45 10 8 15 21 20 55 20 26 0 47 -5 52 -13 10 -18 53 -29 53 -14 0 13
-90 218 -101 231 -5 6 -16 -7 -25 -30z m36 -111 c0 -7 -7 -13 -15 -13 -16 0
-19 9 -9 35 5 13 8 14 15 3 5 -7 9 -19 9 -25z"/>
<path d="M2110 597 l0 -124 25 5 c24 4 25 8 25 70 l0 66 68 -67 c37 -37 71
-67 75 -67 4 0 7 54 7 120 l0 120 -25 0 c-24 0 -25 -3 -25 -60 0 -33 -4 -60
-8 -60 -5 0 -21 14 -38 31 -16 17 -46 44 -66 61 l-38 30 0 -125z"/>
<path d="M2421 601 c-2 -106 0 -119 16 -123 31 -8 39 1 35 42 -5 52 10 51 45
-1 l27 -42 21 28 c55 75 54 75 55 23 0 -44 2 -48 25 -48 l25 0 0 121 c0 66 -4
118 -8 115 -4 -2 -30 -36 -58 -75 -27 -39 -52 -71 -56 -71 -4 0 -31 34 -60 74
-29 41 -56 75 -59 75 -4 1 -8 -52 -8 -118z"/>
<path d="M2960 596 l0 -123 25 5 c24 4 25 8 25 70 l0 66 68 -67 c37 -37 71
-67 75 -67 4 0 7 54 7 120 l0 120 -25 0 c-23 0 -24 -3 -27 -65 l-3 -65 -65 65
c-36 35 -68 65 -72 65 -5 0 -8 -56 -8 -124z"/>
<path d="M4060 600 c0 -66 3 -121 8 -121 25 -4 119 -5 130 -1 6 2 12 13 12 23
0 10 -6 20 -12 20 -7 1 -26 3 -43 4 -16 2 -33 3 -37 4 -5 1 -8 44 -8 96 0 95
0 95 -25 95 l-25 0 0 -120z"/>
<path d="M4230 600 l0 -120 25 0 25 0 0 120 0 120 -25 0 -25 0 0 -120z"/>
<path d="M4310 601 c0 -90 3 -120 13 -124 24 -9 36 7 39 53 l3 45 35 -48 34
-48 18 25 c10 13 27 35 38 48 l19 23 1 -46 c0 -30 5 -49 13 -52 32 -12 38 8
35 129 l-3 119 -58 -77 c-32 -43 -59 -78 -61 -78 -2 0 -29 34 -60 75 -31 41
-59 75 -61 75 -3 0 -5 -54 -5 -119z"/>
<path d="M5040 700 c0 -15 7 -20 30 -21 52 -2 55 -4 52 -24 -2 -10 -21 -54
-43 -97 -21 -43 -39 -79 -39 -81 0 -2 38 -3 85 -3 84 1 85 1 85 26 0 24 -3 25
-45 22 -25 -2 -45 -2 -45 1 0 6 64 148 81 180 9 16 3 17 -76 17 -78 0 -85 -2
-85 -20z"/>
<path d="M5283 600 l-52 -120 30 0 c19 0 29 5 29 15 0 25 92 21 108 -5 13 -21
37 -27 46 -11 6 9 -94 241 -104 241 -3 0 -28 -54 -57 -120z m71 -16 c9 -23 8
-24 -13 -24 -14 0 -18 5 -14 20 6 24 19 26 27 4z"/>
<path d="M990 285 l0 -127 66 4 c60 4 70 7 95 36 23 25 29 42 29 77 0 86 -38
124 -131 132 l-59 6 0 -128z m103 64 c30 -16 37 -28 37 -71 0 -41 -27 -68 -67
-68 -22 0 -23 4 -23 75 0 81 6 88 53 64z"/>
<path d="M1237 383 c-8 -39 -8 -162 -1 -196 5 -27 7 -27 80 -27 71 0 74 1 70
23 -2 18 -11 23 -52 27 -41 4 -49 8 -49 25 0 16 8 21 38 23 32 3 37 7 37 28 0
21 -4 24 -39 24 -33 0 -38 3 -37 23 1 19 8 23 51 27 42 4 50 8 50 25 0 18 -8
20 -72 23 -71 3 -71 3 -76 -25z"/>
<path d="M1670 406 c0 -2 14 -34 31 -72 17 -38 42 -93 56 -123 23 -54 24 -55
36 -31 16 31 97 219 97 225 0 3 -11 5 -24 5 -19 0 -28 -12 -53 -67 l-31 -68
-31 68 c-26 56 -35 67 -56 67 -14 0 -25 -2 -25 -4z"/>
<path d="M1950 286 l0 -126 25 0 26 0 -3 123 c-3 118 -4 122 -25 125 -23 3
-23 2 -23 -122z"/>
<path d="M2060 284 l0 -126 60 4 c49 3 66 10 89 32 86 83 20 216 -106 216
l-43 0 0 -126z m117 53 c7 -7 15 -26 19 -42 7 -39 -26 -85 -62 -85 -23 0 -24
2 -24 76 l0 76 28 -7 c15 -3 33 -12 39 -18z"/>
<path d="M2300 286 l0 -126 25 0 c23 0 25 3 25 53 l1 52 32 -52 c28 -46 36
-52 65 -53 l32 0 -26 40 -26 39 21 27 c28 35 27 76 -2 110 -20 23 -34 28 -85
32 l-62 4 0 -126z m111 58 c18 -21 0 -48 -35 -52 -24 -3 -26 0 -26 32 0 31 3
36 24 36 13 0 29 -7 37 -16z"/>
<path d="M2537 403 c-4 -3 -7 -60 -7 -125 l0 -118 25 0 25 0 0 125 c0 115 -2
125 -18 125 -10 0 -22 -3 -25 -7z"/>
<path d="M2693 388 c-40 -29 -53 -57 -53 -115 0 -39 5 -50 36 -79 31 -29 42
-34 86 -34 43 0 54 4 83 33 43 43 53 92 30 141 -34 71 -121 97 -182 54z m100
-39 c73 -33 47 -139 -33 -139 -71 0 -100 80 -46 127 30 26 44 28 79 12z"/>
<path d="M2974 400 c-11 -4 -27 -22 -34 -39 -11 -26 -10 -35 4 -56 9 -14 33
-33 53 -43 20 -9 38 -23 41 -29 5 -19 -27 -28 -49 -15 -11 7 -27 8 -39 4 l-21
-8 21 -27 c29 -36 81 -37 115 -2 42 41 24 94 -39 115 -39 13 -51 33 -30 51 11
9 18 9 26 1 16 -16 58 -15 58 1 0 20 -43 57 -66 56 -10 0 -28 -4 -40 -9z"/>
<path d="M3380 285 l0 -125 75 0 c73 0 75 1 75 25 0 23 -3 25 -50 25 -47 0
-50 2 -50 25 0 23 4 25 41 25 36 0 40 2 37 23 -2 18 -10 23 -40 25 -33 3 -38
7 -38 28 0 22 4 24 50 24 47 0 50 2 50 25 0 24 -2 25 -75 25 l-75 0 0 -125z"/>
<path d="M3734 395 c-3 -8 -4 -37 -2 -65 1 -27 1 -50 -1 -50 -2 0 -35 27 -72
60 -37 33 -70 60 -73 60 -3 0 -6 -54 -6 -120 l0 -120 25 0 c24 0 25 2 25 65 0
36 3 65 7 65 4 0 38 -30 75 -67 l68 -67 0 127 c0 121 -1 127 -20 127 -11 0
-23 -7 -26 -15z"/>
<path d="M4360 286 l0 -126 76 0 c72 0 75 1 72 23 -3 19 -10 22 -50 25 l-47 3
-3 97 c-3 92 -4 97 -25 100 -23 3 -23 2 -23 -122z"/>
<path d="M4520 385 c0 -21 5 -25 30 -25 l30 0 0 -100 0 -100 25 0 25 0 0 100
0 100 30 0 c25 0 30 4 30 25 0 25 -1 25 -85 25 -84 0 -85 0 -85 -25z"/>
<path d="M4742 309 c3 -96 4 -102 31 -125 39 -33 95 -33 136 2 31 26 31 26 31
125 0 99 0 99 -25 99 -25 0 -25 -1 -25 -88 0 -96 -7 -112 -52 -112 -38 0 -48
24 -48 119 0 80 0 81 -26 81 l-26 0 4 -101z"/>
<path d="M5000 285 l0 -125 24 0 c23 0 25 4 28 52 l3 53 34 -53 c27 -43 38
-52 62 -52 28 0 29 2 18 23 -6 12 -18 30 -27 40 -14 16 -13 19 6 40 26 27 30
91 8 113 -22 21 -63 34 -112 34 l-44 0 0 -125z m113 54 c16 -26 1 -49 -33 -49
-28 0 -30 3 -30 36 0 32 2 35 26 32 15 -2 32 -10 37 -19z"/>
<path d="M4146 313 c-75 -172 -70 -153 -37 -153 20 0 30 6 34 20 4 15 14 20
41 20 24 0 42 -7 53 -20 15 -17 63 -29 63 -15 0 12 -103 235 -109 235 -4 0
-24 -39 -45 -87z m58 -49 c9 -23 8 -24 -14 -24 -11 0 -20 2 -20 4 0 12 13 36
20 36 4 0 11 -7 14 -16z"/>
<path d="M5284 282 c-48 -108 -50 -117 -32 -120 11 -2 29 6 39 17 25 27 74 27
96 1 22 -26 68 -28 58 -2 -22 57 -99 222 -104 222 -3 0 -29 -53 -57 -118z m70
-18 c9 -23 8 -24 -14 -24 -22 0 -23 1 -14 24 8 20 20 20 28 0z"/>
<path d="M1000 30 c0 -20 7 -20 2200 -20 2193 0 2200 0 2200 20 0 20 -7 20
-2200 20 -2193 0 -2200 0 -2200 -20z"/>
</g>
</svg>
